<svg version="1.1" id="zs_block" xmlns="http://www.w3.org/2000/svg" xmlns:xlink="http://www.w3.org/1999/xlink" x="0px" y="0px" width="256px" height="214px" viewBox="0 0 256 214" enable-background="new 0 0 256 214" xml:space="preserve" preserveAspectRatio="xMinYMin"> 
    <g id="character"> 
        <path fill="#582025" d="M186.691 86.581c-15.482-0.267-27.941-9.281-27.941-20.358 0-11.231 12.838-20.361 28.716-20.361 10.104 0 19.022 3.704 24.106 9.32l39.09-17.878C238.561 18.166 214.8 5.141 187.48 5.141c-10.195 0-182.478 0-182.478 0v40.721h102.512L5 168.102v40.758c0 0 179.35 0 179.387 0 36.787 0 66.613-27.353 66.613-61.118C251 114.699 222.404 87.729 186.691 86.581zM184.387 168.102c-0.037 0-128.111 0-128.111 0l65.229-77.812c10.687 21.203 35.056 36.252 63.653 37.014 13.798 0.344 24.867 9.355 24.867 20.397C209.988 158.965 198.531 168.102 184.387 168.102z"/>
    </g> 
</svg>
