<svg version="1.1" id="zs_block" xmlns="http://www.w3.org/2000/svg" xmlns:xlink="http://www.w3.org/1999/xlink" x="0px" y="0px" width="256px" height="256px" viewBox="0 0 256 256" enable-background="new 0 0 256 256" xml:space="preserve" preserveAspectRatio="xMinYMin"> 
    <g id="character"> 
        <path fill="#582025" d="M186.692 107.581c-15.483-0.266-27.942-9.281-27.942-20.358 0-11.232 12.838-20.361 28.716-20.361 10.104 0 19.022 3.704 24.106 9.32l39.09-17.878C238.561 39.166 214.8 26.141 187.48 26.141c-10.195 0-182.477 0-182.477 0v40.721h102.512L5 189.101v40.759c0 0 179.35 0 179.387 0 36.787 0 66.613-27.353 66.613-61.119C251 135.699 222.404 108.729 186.692 107.581zM184.387 189.101c-0.037 0-128.111 0-128.111 0l65.229-77.812c10.686 21.203 35.055 36.252 63.653 37.014 13.798 0.343 24.868 9.355 24.868 20.397C209.988 179.965 198.531 189.101 184.387 189.101z"/>
    </g> 
</svg>
